<svg width="300" height="300" viewBox="0 0 300 300" fill="none" xmlns="http://www.w3.org/2000/svg">
<rect width="300" height="300" rx="12" fill="black"/>
<path d="M154.6 72.56C143.95 56.56 141.6 35.24 141.14 26.46C114.08 32.32 87.2 42.81 88.75 50.54C88.95 51.54 90.17 52.68 92.21 53.82L89 59.51C85.11 57.33 82.92 54.82 82.33 51.82C80.58 43.07 90.48 35.16 112.61 27.63C122.773 24.2497 133.124 21.4617 143.61 19.28L147.51 18.5V22.5C147.51 22.77 147.68 50.5 160.01 68.96L154.6 72.56Z" fill="#CFD8DC"/>
<path d="M165.86 279.5H164.22C110.78 279.5 51.3099 262.72 44.2799 234.63C39.9999 217.47 54.0099 198.51 84.8199 179.83L88.2099 185.4C60.4899 202.22 47.1399 219.13 50.6199 233.05C56.7199 257.43 113.08 272.63 162.51 272.97C168.39 264.18 199.96 212.57 181.94 143.33L188.25 141.69C208.79 220.57 167.25 277.61 166.84 278.18L165.86 279.5Z" fill="#CFD8DC"/>
<path d="M69.18 255C67.322 255.054 65.4638 254.9 63.64 254.54C63.0756 254.405 62.5576 254.121 62.1399 253.718C61.7222 253.315 61.4201 252.807 61.265 252.248C61.1098 251.689 61.1073 251.098 61.2577 250.537C61.408 249.977 61.7058 249.467 62.12 249.06C62.59 248.59 109.06 202.06 115.34 164.41L121.77 165.47C116.38 197.86 84.4901 234.77 71.8301 248.37C84.4801 247.64 116.42 241.72 177.73 207.37C129.88 202.12 122.31 163.82 122.23 163.37L128.65 162.19C128.95 163.79 136.65 201.4 188.95 201.4H189C189.716 201.398 190.413 201.634 190.981 202.07C191.549 202.506 191.957 203.118 192.14 203.81C192.329 204.503 192.284 205.239 192.013 205.904C191.742 206.569 191.26 207.126 190.64 207.49C117.35 250.05 81.81 255 69.18 255Z" fill="#CFD8DC"/>
<path d="M99.14 271C98.4501 270.997 97.779 270.775 97.2225 270.367C96.6661 269.96 96.253 269.386 96.0422 268.729C95.8313 268.072 95.8337 267.366 96.0488 266.71C96.264 266.055 96.6809 265.484 97.24 265.08C97.47 264.92 109.07 256.36 121.42 237.5C116.495 235.328 111.709 232.853 107.09 230.09C102.049 227.173 97.5132 223.458 93.66 219.09C76.89 223.51 61.42 225.26 47.83 224.09L48.38 217.59C60.62 218.59 74.53 217.18 89.61 213.42C79.35 195.89 88.7699 178.48 88.8999 178.25L94.6 181.42C94.16 182.22 86.3499 196.88 96.2299 211.65C111.922 206.992 127.158 200.917 141.75 193.5C145.772 180.153 148.452 166.439 149.75 152.56C149.804 152.044 149.978 151.547 150.26 151.111C150.541 150.675 150.922 150.311 151.37 150.05C151.822 149.788 152.331 149.638 152.853 149.614C153.375 149.59 153.895 149.691 154.37 149.91C154.58 150.01 175.66 159.64 190.92 165.91C191.463 166.136 191.935 166.504 192.287 166.976C192.639 167.447 192.858 168.005 192.92 168.59C192.977 169.171 192.876 169.756 192.628 170.284C192.379 170.812 191.993 171.263 191.51 171.59C177.338 181.317 162.565 190.138 147.28 198C143.334 210.719 137.967 222.953 131.28 234.47C145.822 239.922 161.142 243.015 176.66 243.63C177.385 243.627 178.091 243.865 178.666 244.308C179.24 244.751 179.651 245.373 179.832 246.075C180.013 246.777 179.955 247.52 179.667 248.186C179.378 248.851 178.876 249.402 178.24 249.75C148.63 266.2 101.48 270.83 99.5 271.02L99.14 271ZM127.75 240.13C122.449 248.438 116.267 256.15 109.31 263.13C122.31 261.21 145.2 257.01 164.16 249.18C151.703 247.652 139.477 244.619 127.75 240.15V240.13ZM100.75 217.06C103.677 219.924 106.941 222.422 110.47 224.5C115.126 227.287 119.964 229.759 124.95 231.9C130.568 222.442 135.257 212.462 138.95 202.1C126.607 208.053 113.831 213.061 100.73 217.08L100.75 217.06ZM155.75 157.69C154.52 168.365 152.515 178.936 149.75 189.32C160.58 183.55 171.63 176.95 182.75 169.58C172.71 165.32 161.6 160.35 155.75 157.71V157.69Z" fill="#CFD8DC"/>
<path d="M121.32 68.15C120.544 68.1441 119.795 67.8683 119.2 67.37C108.7 58.37 96.34 40.09 95.82 39.31C95.4153 38.7047 95.2249 37.9813 95.2791 37.2552C95.3333 36.529 95.6291 35.8419 96.1192 35.3035C96.6094 34.765 97.2657 34.4061 97.9835 34.284C98.7014 34.162 99.4395 34.2838 100.08 34.63C100.15 34.63 106.2 37.14 147.16 43.96C147.736 44.0582 148.274 44.3088 148.72 44.6857C149.166 45.0626 149.503 45.552 149.696 46.1031C149.889 46.6542 149.931 47.2469 149.817 47.8196C149.704 48.3924 149.439 48.9242 149.05 49.36C141.636 57.3957 132.572 63.7338 122.48 67.94C122.109 68.078 121.716 68.1491 121.32 68.15ZM106.47 43C110.58 48.54 116.47 56 121.94 61.06C128.45 58.049 134.481 54.0967 139.84 49.33C123 46.46 112.71 44.42 106.47 43Z" fill="#CFD8DC"/>
<path d="M146.89 158.17C146.435 158.172 145.985 158.076 145.57 157.89C144.938 157.612 144.411 157.141 144.064 156.544C143.717 155.948 143.569 155.256 143.64 154.57C145.55 136.64 118.03 129.44 117.75 129.37C117.191 129.23 116.679 128.944 116.267 128.542C115.855 128.139 115.558 127.634 115.405 127.078C115.252 126.523 115.25 125.936 115.399 125.38C115.547 124.823 115.841 124.316 116.25 123.91C117.6 122.56 149.78 90.65 190.14 73.13C190.688 72.8899 191.292 72.8052 191.885 72.8853C192.478 72.9654 193.037 73.2072 193.502 73.5841C193.967 73.9611 194.319 74.4587 194.519 75.0224C194.72 75.5861 194.762 76.1942 194.64 76.78C186.9 114.25 150.86 155.34 149.34 157.07C149.03 157.413 148.652 157.688 148.23 157.877C147.809 158.066 147.352 158.166 146.89 158.17ZM124.78 124.8C132.51 127.7 146.04 134.42 149.46 146.69C158.91 134.9 179.09 107.69 186.62 81.89C158 95.66 133.91 116.41 124.78 124.8Z" fill="#B71C1C"/>
<path d="M89.72 184L86.62 178.26C98.9 171.64 112.97 159.45 124.5 145.26C114.69 151.98 109.07 156.58 108.89 156.73L104.73 151.73C114.361 144.118 124.45 137.105 134.94 130.73C140.07 122.47 144.02 113.98 146.04 105.84C146.39 104.46 146.69 103.12 146.93 101.84C136.519 98.0621 125.77 95.2895 114.83 93.56C114.24 93.4761 113.684 93.2323 113.222 92.8552C112.76 92.478 112.41 91.9817 112.21 91.42C112.016 90.8581 111.976 90.2542 112.096 89.6717C112.215 89.0893 112.49 88.5498 112.89 88.11C113.45 87.51 126.7 73.32 143.25 65.52C143.879 65.2263 144.586 65.1406 145.268 65.2755C145.949 65.4103 146.57 65.7587 147.04 66.27C147.48 66.74 156.44 76.8 154.16 97.61C161.999 100.641 169.608 104.234 176.93 108.36C196.203 99.5648 216.394 92.9375 237.13 88.6C237.703 88.4822 238.297 88.5213 238.85 88.7132C239.403 88.905 239.893 89.2425 240.27 89.69C240.647 90.1376 240.896 90.6785 240.991 91.2558C241.086 91.8331 241.024 92.4254 240.81 92.97C232.33 114.71 209.59 137.92 208.63 138.9C208.306 139.23 207.916 139.487 207.485 139.654C207.054 139.821 206.593 139.895 206.131 139.87C205.67 139.846 205.219 139.723 204.808 139.511C204.398 139.299 204.037 139.002 203.75 138.64C196.44 129.46 186.89 121.85 176.59 115.64C163.854 121.543 151.473 128.184 139.51 135.53C126.34 156.11 106.45 175 89.72 184ZM183.72 112.48C192.15 117.803 199.797 124.276 206.44 131.71C211.84 125.85 224.8 111.04 232.16 96.34C215.565 100.245 199.359 105.647 183.74 112.48H183.72ZM153.1 104.17C152.89 105.23 152.64 106.32 152.36 107.43C150.849 113.213 148.716 118.816 146 124.14C153.15 120.05 161.07 115.84 169.61 111.76C164.256 108.93 158.752 106.396 153.12 104.17H153.1ZM122.1 88.17C130.826 89.9231 139.417 92.2889 147.81 95.25C148.81 83.25 145.55 75.86 143.59 72.6C135.807 76.87 128.597 82.1083 122.13 88.19L122.1 88.17Z" fill="#B71C1C"/>
<path d="M122.14 119.68C122.14 148.25 98.33 170.95 81.14 187.52C78.27 190.33 68.55 190.78 68.55 190.78C70.96 188.31 73.7 185.7 76.64 182.89C92.94 167.11 115.58 145.51 115.58 119.68C115.58 89.09 103.25 77.02 93.53 67.37C89.23 62.99 85.53 58.82 83.36 53.73L85.36 52.88L92.08 55.82C93.8873 58.3016 95.9156 60.6144 98.14 62.73C108.18 72.71 122.14 86.41 122.14 119.68Z" fill="#B71C1C"/>
<path d="M284.47 128.12C284.47 128.12 280.53 128.68 279.42 128.81C222.27 135.14 163.3 151.58 129.58 165.08C117.057 170.061 104.894 175.905 93.18 182.57C93.0976 182.621 93.0106 182.665 92.92 182.7C86.13 186.61 69.63 194.7 56.26 201.81C75.83 181 112.49 165 127.1 159.08C160.17 145.84 217 129.86 272.89 123C266.31 115.3 250.19 98.9999 218.49 86.8599C199.96 79.6799 171.78 75.6399 146.93 72.0499C107.4 66.3799 84.93 62.5899 82.74 51.8299C82.3102 49.6645 82.6091 47.4177 83.59 45.4399C85.4838 48.3746 87.9454 50.9008 90.83 52.8699C91.4724 53.303 92.1403 53.6971 92.83 54.0499L92.89 54.1099C102.16 59.0099 127.14 62.5899 147.95 65.5899C173.13 69.2499 201.64 73.3599 220.88 80.7299C265.69 98.0099 281.15 122.73 281.81 123.73C282.47 124.73 284.47 128.12 284.47 128.12Z" fill="#B71C1C"/>
</svg>
